<mxfile host="app.diagrams.net" modified="2020-09-15T10:00:44.079Z" agent="5.0 (Windows NT 10.0; Win64; x64) AppleWebKit/537.36 (KHTML, like Gecko) Chrome/85.0.4183.102 Safari/537.36" etag="uwNrYxGy0-feseAlbYu0" version="13.7.1" type="github">
  <diagram id="vbZHFRndySTCUfoC063W" name="Page-1">
    <mxGraphModel dx="1848" dy="1698" grid="1" gridSize="10" guides="1" tooltips="1" connect="1" arrows="1" fold="1" page="1" pageScale="1" pageWidth="827" pageHeight="1169" math="0" shadow="0">
      <root>
        <mxCell id="0" />
        <mxCell id="1" parent="0" />
        <mxCell id="6xzCR5tmYScLJ-PubAJd-15" style="edgeStyle=orthogonalEdgeStyle;rounded=0;orthogonalLoop=1;jettySize=auto;html=1;entryX=1;entryY=0.5;entryDx=0;entryDy=0;" parent="1" source="6xzCR5tmYScLJ-PubAJd-1" target="6xzCR5tmYScLJ-PubAJd-14" edge="1">
          <mxGeometry relative="1" as="geometry" />
        </mxCell>
        <mxCell id="6xzCR5tmYScLJ-PubAJd-17" style="edgeStyle=orthogonalEdgeStyle;rounded=0;orthogonalLoop=1;jettySize=auto;html=1;" parent="1" source="6xzCR5tmYScLJ-PubAJd-1" target="6xzCR5tmYScLJ-PubAJd-16" edge="1">
          <mxGeometry relative="1" as="geometry" />
        </mxCell>
        <mxCell id="6xzCR5tmYScLJ-PubAJd-1" value="Mapping = Metadata" style="rounded=1;whiteSpace=wrap;html=1;align=center;verticalAlign=top;" parent="1" vertex="1">
          <mxGeometry x="50" y="160" width="210" height="210" as="geometry" />
        </mxCell>
        <mxCell id="6xzCR5tmYScLJ-PubAJd-2" value="Schema" style="rounded=1;whiteSpace=wrap;html=1;" parent="1" vertex="1">
          <mxGeometry x="630" y="-20" width="120" height="60" as="geometry" />
        </mxCell>
        <mxCell id="TNbHrjHbEd_e3-TfRKzE-6" style="edgeStyle=orthogonalEdgeStyle;rounded=0;orthogonalLoop=1;jettySize=auto;html=1;entryX=1;entryY=0.5;entryDx=0;entryDy=0;" edge="1" parent="1" source="6xzCR5tmYScLJ-PubAJd-3" target="6xzCR5tmYScLJ-PubAJd-7">
          <mxGeometry relative="1" as="geometry">
            <Array as="points">
              <mxPoint x="550" y="-50" />
            </Array>
          </mxGeometry>
        </mxCell>
        <mxCell id="6xzCR5tmYScLJ-PubAJd-3" value="Session" style="rounded=1;whiteSpace=wrap;html=1;" parent="1" vertex="1">
          <mxGeometry x="490" y="160" width="120" height="60" as="geometry" />
        </mxCell>
        <mxCell id="6xzCR5tmYScLJ-PubAJd-4" value="Objects" style="rounded=1;whiteSpace=wrap;html=1;" parent="1" vertex="1">
          <mxGeometry x="700" y="200" width="120" height="60" as="geometry" />
        </mxCell>
        <mxCell id="6xzCR5tmYScLJ-PubAJd-5" value="Query" style="rounded=1;whiteSpace=wrap;html=1;" parent="1" vertex="1">
          <mxGeometry x="690" y="320" width="120" height="60" as="geometry" />
        </mxCell>
        <mxCell id="6xzCR5tmYScLJ-PubAJd-6" value="Relationship" style="rounded=1;whiteSpace=wrap;html=1;" parent="1" vertex="1">
          <mxGeometry x="707" y="70" width="120" height="60" as="geometry" />
        </mxCell>
        <mxCell id="6xzCR5tmYScLJ-PubAJd-9" style="edgeStyle=orthogonalEdgeStyle;rounded=0;orthogonalLoop=1;jettySize=auto;html=1;" parent="1" source="6xzCR5tmYScLJ-PubAJd-7" target="6xzCR5tmYScLJ-PubAJd-8" edge="1">
          <mxGeometry relative="1" as="geometry" />
        </mxCell>
        <mxCell id="6xzCR5tmYScLJ-PubAJd-7" value="Engine" style="rounded=1;whiteSpace=wrap;html=1;" parent="1" vertex="1">
          <mxGeometry x="340" y="-80" width="120" height="60" as="geometry" />
        </mxCell>
        <mxCell id="6xzCR5tmYScLJ-PubAJd-8" value="Database" style="rounded=1;whiteSpace=wrap;html=1;" parent="1" vertex="1">
          <mxGeometry x="340" y="-190" width="120" height="60" as="geometry" />
        </mxCell>
        <mxCell id="6xzCR5tmYScLJ-PubAJd-12" value="Column Map" style="rounded=1;whiteSpace=wrap;html=1;align=center;" parent="1" vertex="1">
          <mxGeometry x="90" y="270" width="120" height="60" as="geometry" />
        </mxCell>
        <mxCell id="6xzCR5tmYScLJ-PubAJd-13" value="__tablename__" style="rounded=1;whiteSpace=wrap;html=1;align=center;" parent="1" vertex="1">
          <mxGeometry x="90" y="200" width="120" height="60" as="geometry" />
        </mxCell>
        <mxCell id="6xzCR5tmYScLJ-PubAJd-14" value="Data Types" style="rounded=1;whiteSpace=wrap;html=1;align=center;" parent="1" vertex="1">
          <mxGeometry x="-140" y="235" width="120" height="60" as="geometry" />
        </mxCell>
        <mxCell id="TNbHrjHbEd_e3-TfRKzE-5" style="edgeStyle=orthogonalEdgeStyle;rounded=0;orthogonalLoop=1;jettySize=auto;html=1;" edge="1" parent="1" source="6xzCR5tmYScLJ-PubAJd-16" target="TNbHrjHbEd_e3-TfRKzE-4">
          <mxGeometry relative="1" as="geometry" />
        </mxCell>
        <mxCell id="6xzCR5tmYScLJ-PubAJd-16" value="Base" style="rounded=1;whiteSpace=wrap;html=1;align=center;" parent="1" vertex="1">
          <mxGeometry x="200" y="40" width="120" height="60" as="geometry" />
        </mxCell>
        <mxCell id="6xzCR5tmYScLJ-PubAJd-19" style="edgeStyle=orthogonalEdgeStyle;rounded=0;orthogonalLoop=1;jettySize=auto;html=1;" parent="1" source="6xzCR5tmYScLJ-PubAJd-18" target="6xzCR5tmYScLJ-PubAJd-7" edge="1">
          <mxGeometry relative="1" as="geometry" />
        </mxCell>
        <mxCell id="6xzCR5tmYScLJ-PubAJd-20" style="edgeStyle=orthogonalEdgeStyle;rounded=0;orthogonalLoop=1;jettySize=auto;html=1;entryX=0.75;entryY=1;entryDx=0;entryDy=0;" parent="1" source="6xzCR5tmYScLJ-PubAJd-18" target="6xzCR5tmYScLJ-PubAJd-16" edge="1">
          <mxGeometry relative="1" as="geometry" />
        </mxCell>
        <mxCell id="6xzCR5tmYScLJ-PubAJd-18" value="Create Table" style="rounded=1;whiteSpace=wrap;html=1;align=center;" parent="1" vertex="1">
          <mxGeometry x="340" y="160" width="120" height="60" as="geometry" />
        </mxCell>
        <mxCell id="TNbHrjHbEd_e3-TfRKzE-2" style="edgeStyle=orthogonalEdgeStyle;rounded=0;orthogonalLoop=1;jettySize=auto;html=1;" edge="1" parent="1" source="TNbHrjHbEd_e3-TfRKzE-1" target="6xzCR5tmYScLJ-PubAJd-1">
          <mxGeometry relative="1" as="geometry" />
        </mxCell>
        <mxCell id="TNbHrjHbEd_e3-TfRKzE-1" value="Instance" style="rounded=1;whiteSpace=wrap;html=1;align=center;" vertex="1" parent="1">
          <mxGeometry x="95" y="420" width="120" height="60" as="geometry" />
        </mxCell>
        <mxCell id="TNbHrjHbEd_e3-TfRKzE-3" value="sqlalchemy.orm" style="rounded=1;whiteSpace=wrap;html=1;align=center;" vertex="1" parent="1">
          <mxGeometry x="660" y="-150" width="120" height="60" as="geometry" />
        </mxCell>
        <mxCell id="TNbHrjHbEd_e3-TfRKzE-4" value="sqlalchemy.ext.decalrative" style="rounded=1;whiteSpace=wrap;html=1;align=center;" vertex="1" parent="1">
          <mxGeometry x="60" y="-70" width="120" height="60" as="geometry" />
        </mxCell>
        <mxCell id="TNbHrjHbEd_e3-TfRKzE-8" style="edgeStyle=orthogonalEdgeStyle;rounded=0;orthogonalLoop=1;jettySize=auto;html=1;" edge="1" parent="1" source="TNbHrjHbEd_e3-TfRKzE-7" target="TNbHrjHbEd_e3-TfRKzE-1">
          <mxGeometry relative="1" as="geometry" />
        </mxCell>
        <mxCell id="TNbHrjHbEd_e3-TfRKzE-9" style="edgeStyle=orthogonalEdgeStyle;rounded=0;orthogonalLoop=1;jettySize=auto;html=1;" edge="1" parent="1" source="TNbHrjHbEd_e3-TfRKzE-7" target="6xzCR5tmYScLJ-PubAJd-3">
          <mxGeometry relative="1" as="geometry" />
        </mxCell>
        <mxCell id="TNbHrjHbEd_e3-TfRKzE-7" value="Insert instance" style="rounded=1;whiteSpace=wrap;html=1;align=center;" vertex="1" parent="1">
          <mxGeometry x="340" y="420" width="120" height="60" as="geometry" />
        </mxCell>
        <mxCell id="TNbHrjHbEd_e3-TfRKzE-11" style="edgeStyle=orthogonalEdgeStyle;rounded=0;orthogonalLoop=1;jettySize=auto;html=1;entryX=1;entryY=0.5;entryDx=0;entryDy=0;" edge="1" parent="1" source="TNbHrjHbEd_e3-TfRKzE-10" target="6xzCR5tmYScLJ-PubAJd-3">
          <mxGeometry relative="1" as="geometry" />
        </mxCell>
        <mxCell id="TNbHrjHbEd_e3-TfRKzE-10" value="rollback/commit" style="rounded=1;whiteSpace=wrap;html=1;align=center;" vertex="1" parent="1">
          <mxGeometry x="587" y="400" width="120" height="60" as="geometry" />
        </mxCell>
        <mxCell id="TNbHrjHbEd_e3-TfRKzE-13" style="edgeStyle=orthogonalEdgeStyle;rounded=0;orthogonalLoop=1;jettySize=auto;html=1;entryX=0.75;entryY=1;entryDx=0;entryDy=0;" edge="1" parent="1" source="TNbHrjHbEd_e3-TfRKzE-12" target="6xzCR5tmYScLJ-PubAJd-3">
          <mxGeometry relative="1" as="geometry" />
        </mxCell>
        <mxCell id="TNbHrjHbEd_e3-TfRKzE-14" style="edgeStyle=orthogonalEdgeStyle;rounded=0;orthogonalLoop=1;jettySize=auto;html=1;entryX=0;entryY=0.75;entryDx=0;entryDy=0;" edge="1" parent="1" source="TNbHrjHbEd_e3-TfRKzE-12" target="6xzCR5tmYScLJ-PubAJd-1">
          <mxGeometry relative="1" as="geometry">
            <Array as="points">
              <mxPoint x="-40" y="540" />
              <mxPoint x="-40" y="318" />
            </Array>
          </mxGeometry>
        </mxCell>
        <mxCell id="TNbHrjHbEd_e3-TfRKzE-12" value="Query" style="rounded=1;whiteSpace=wrap;html=1;align=center;" vertex="1" parent="1">
          <mxGeometry x="340" y="510" width="120" height="60" as="geometry" />
        </mxCell>
      </root>
    </mxGraphModel>
  </diagram>
</mxfile>
